HIERARCHY
ROOT Hips
{
	OFFSET 0.000000 0.000000 0.000000 
	CHANNELS 6 Xposition Yposition Zposition Zrotation Yrotation Xrotation
	JOINT LeftUpLeg
	{
		OFFSET 1.363060 -1.794630 0.839290 
		CHANNELS 3 Zrotation Yrotation Xrotation
		JOINT LeftLeg
		{
			OFFSET 2.448110 -6.726130 0.000000 
			CHANNELS 3 Zrotation Yrotation Xrotation
			JOINT LeftFoot
			{
				OFFSET 2.562200 -7.039590 0.000000 
				CHANNELS 3 Zrotation Yrotation Xrotation
				JOINT LeftToeBase
				{
					OFFSET 0.157640 -0.433110 2.322550 
					CHANNELS 3 Zrotation Yrotation Xrotation
					End Site
					{
						OFFSET 0.000000 0.000000 0.000000 
					}
				}
			}
		}
	}
	JOINT RightUpLeg
	{
		OFFSET -1.305520 -1.794630 0.839290 
		CHANNELS 3 Zrotation Yrotation Xrotation
		JOINT RightLeg
		{
			OFFSET -2.542530 -6.985550 0.000000 
			CHANNELS 3 Zrotation Yrotation Xrotation
			JOINT RightFoot
			{
				OFFSET -2.568260 -7.056230 0.000000 
				CHANNELS 3 Zrotation Yrotation Xrotation
				JOINT RightToeBase
				{
					OFFSET -0.164730 -0.452590 2.363150 
					CHANNELS 3 Zrotation Yrotation Xrotation
					End Site
					{
						OFFSET 0.000000 0.000000 0.000000 
					}
				}
			}
		}
	}
	JOINT Spine
	{
		OFFSET 0.028270 2.035590 -0.193380 
		CHANNELS 3 Zrotation Yrotation Xrotation
		JOINT Spine1
		{
			OFFSET 0.056720 2.048850 -0.042750 
			CHANNELS 3 Zrotation Yrotation Xrotation
			JOINT Neck1
			{
				OFFSET -0.054170 1.746240 0.172020 
				CHANNELS 3 Zrotation Yrotation Xrotation
				JOINT Head
				{
					OFFSET 0.104070 1.761360 -0.123970 
					CHANNELS 3 Zrotation Yrotation Xrotation
					End Site
					{
						OFFSET 0.000000 0.000000 0.000000 
					}
				}
			}
			JOINT LeftArm
			{
				OFFSET 3.362410 1.200890 -0.311210 
				CHANNELS 3 Zrotation Yrotation Xrotation
				JOINT LeftForeArm
				{
					OFFSET 4.983000 -0.000000 -0.000000 
					CHANNELS 3 Zrotation Yrotation Xrotation
					JOINT LeftHand
					{
						OFFSET 3.483560 -0.000000 -0.000000 
						CHANNELS 3 Zrotation Yrotation Xrotation
						JOINT LeftHandIndex1
						{
							OFFSET 0.715260 -0.000000 -0.000000 
							CHANNELS 3 Zrotation Yrotation Xrotation
							End Site
							{
								OFFSET 0.000000 0.000000 0.000000 
							}
						}
					}
				}
			}
			JOINT RightArm
			{
				OFFSET -3.136600 1.374050 -0.404650 
				CHANNELS 3 Zrotation Yrotation Xrotation
				JOINT RightForeArm
				{
					OFFSET -5.241900 -0.000000 -0.000000 
					CHANNELS 3 Zrotation Yrotation Xrotation
					JOINT RightHand
					{
						OFFSET -3.444170 -0.000000 -0.000000 
						CHANNELS 3 Zrotation Yrotation Xrotation
						JOINT RightHandIndex1
						{
							OFFSET -0.622530 -0.000000 -0.000000 
							CHANNELS 3 Zrotation Yrotation Xrotation
							End Site
							{
								OFFSET 0.000000 0.000000 0.000000 
							}
						}
					}
				}
			}
		}
	}
}
MOTION
Frames: 13
Frame Time: 0.041667
-2.821640 17.111185 -2.424763 13.210854 40.264675 68.643011 1.602546 -20.460884 -57.519934 0.371030 8.861043 21.434055 0.628046 -13.213921 1.692263 0.341400 -3.754700 -10.387500 2.930514 12.383735 -91.139105 -5.522806 -11.114686 39.331942 -0.102380 2.001200 -0.858562 -1.009000 -6.391400 17.924300 14.409220 9.906065 25.025492 1.432327 5.740599 -8.972238 -0.491284 -13.378941 -15.080881 -1.589100 -7.855200 -0.695700 -88.669594 -14.103739 58.168806 71.231759 -61.940876 -43.451589 0.239700 0.817761 -21.533213 -7.125000 0.000000 0.000000 -28.835950 55.322970 -64.601747 -18.284996 26.081269 -3.222025 -1.163136 0.016660 -12.074378 7.125000 0.000000 0.000000 
-2.837297 17.111284 -2.408809 12.816413 40.035514 68.715673 1.536323 -19.913155 -57.849637 0.373989 8.865918 21.448657 0.621746 -13.357981 1.919133 0.314300 -3.603800 -9.964500 2.759173 12.878160 -91.446105 -5.528695 -11.116383 39.346246 -0.100098 1.963539 -0.879017 -1.010000 -6.394400 17.933100 14.486023 10.108492 25.116998 1.731598 5.872833 -8.817820 -0.500509 -13.392694 -15.177316 -1.577700 -7.864400 -0.737100 -88.628886 -14.053466 58.269095 71.360621 -61.955362 -43.560186 0.246196 0.818432 -21.598698 -7.125000 0.000000 0.000000 -28.862677 55.306712 -64.649149 -18.288744 26.094543 -3.227437 -1.157129 0.014885 -11.796072 7.125000 0.000000 0.000000 
-2.820649 17.111185 -2.418421 13.260749 40.126989 68.747623 1.551798 -20.501429 -57.585643 0.370021 8.864633 21.446335 0.622360 -13.099509 1.935761 0.275800 -3.378200 -9.333600 2.712534 12.411467 -91.241409 -5.537963 -11.134294 39.407114 -0.105893 2.032512 -0.882519 -1.043300 -6.495700 18.229800 14.419444 9.950172 25.029887 1.498150 5.769237 -8.956303 -0.536691 -13.449239 -15.124335 -1.591900 -7.891200 -0.732500 -88.709079 -13.994571 58.384549 71.279955 -61.943148 -43.498273 0.247243 0.819136 -21.616688 -7.125000 0.000000 0.000000 -28.734571 55.200485 -64.303300 -18.322364 26.144371 -3.239049 -1.157171 0.015229 -11.748100 7.125000 0.000000 0.000000 
-2.826298 17.105437 -2.415052 13.106327 40.148315 68.852212 1.616366 -20.290073 -57.865868 0.382185 8.892989 21.514815 0.616093 -13.243007 2.045301 0.255600 -3.253100 -8.984200 2.800298 12.552266 -91.479820 -5.540235 -11.132072 39.404566 -0.111318 2.109020 -0.815461 -1.073400 -6.585900 18.494300 14.439843 10.013167 25.010606 1.543118 5.804349 -8.928345 -0.489976 -13.418205 -15.102124 -1.582600 -7.875100 -0.719100 -88.717724 -13.991922 58.359935 71.064351 -61.908097 -43.326004 0.246826 0.818304 -21.621030 -7.125000 0.000000 0.000000 -28.661146 55.202571 -64.098909 -18.332025 26.164325 -3.241571 -1.157173 0.022033 -11.652761 7.125000 0.000000 0.000000 
-2.823523 17.104050 -2.414259 13.176550 40.153200 68.846572 1.633377 -20.397107 -57.818292 0.386444 8.905680 21.546320 0.620217 -13.222189 1.845523 0.315800 -3.612400 -9.988700 2.831339 12.475127 -91.443971 -5.545045 -11.138488 39.428263 -0.112923 2.122159 -0.834699 -1.058100 -6.540300 18.360400 14.403572 9.986293 24.983055 1.483974 5.781183 -8.987255 -0.437289 -13.401279 -15.150474 -1.554300 -7.867000 -0.735000 -88.653953 -13.967104 58.404693 71.098654 -61.914144 -43.355561 0.239537 0.815262 -21.674099 -7.125000 0.000000 0.000000 -28.640963 55.231910 -64.135976 -18.331128 26.167647 -3.239094 -1.149002 0.033787 -11.369415 7.125000 0.000000 0.000000 
-2.833135 17.102861 -2.406034 12.933111 40.077352 68.883771 1.658899 -20.082943 -58.066410 0.399726 8.936746 21.627284 0.617604 -13.356038 1.855903 0.333700 -3.712600 -10.269500 2.863641 12.740311 -91.614964 -5.538080 -11.125631 39.384323 -0.110463 2.105272 -0.783327 -1.053200 -6.525600 18.317400 14.426216 10.076961 25.020818 1.616020 5.839649 -8.916618 -0.380202 -13.372480 -15.211947 -1.524000 -7.853500 -0.749900 -88.590482 -13.909850 58.350660 71.337116 -61.949621 -43.544292 0.235003 0.816559 -21.652525 -7.125000 0.000000 0.000000 -28.676108 55.339189 -64.383225 -18.334451 26.187870 -3.244906 -1.132863 0.036546 -10.949313 7.125000 0.000000 0.000000 
-2.827685 17.107023 -2.405043 12.993949 40.239634 68.746533 1.727557 -20.196740 -57.893607 0.403236 8.941846 21.649485 0.618769 -13.324869 1.891999 0.330300 -3.693500 -10.215800 3.066970 12.610957 -91.390839 -5.529731 -11.115393 39.345223 -0.111919 2.127912 -0.778105 -1.056700 -6.536100 18.348200 14.444788 10.047101 25.001976 1.487480 5.813365 -8.960462 -0.372386 -13.373510 -15.232847 -1.522200 -7.855400 -0.758900 -88.611639 -13.865827 58.417647 71.550551 -61.982456 -43.714128 0.239586 0.821292 -21.539843 -7.125000 0.000000 0.000000 -28.630063 55.259833 -64.242483 -18.398338 26.284253 -3.273123 -1.129137 0.027386 -10.920198 7.125000 0.000000 0.000000 
-2.834919 17.111185 -2.396521 12.683747 40.374410 68.685910 1.919710 -19.884655 -58.077422 0.413947 8.957634 21.686697 0.616452 -13.468339 1.981968 0.320600 -3.639800 -10.065500 3.269735 12.875803 -91.453982 -5.517549 -11.095439 39.273988 -0.109153 2.086161 -0.815532 -1.070000 -6.575700 18.464300 14.553944 10.163663 25.046849 1.555836 5.888096 -8.833609 -0.394538 -13.345145 -15.296832 -1.526400 -7.842800 -0.787400 -88.619622 -13.849488 58.491469 71.674356 -61.997836 -43.814797 0.246404 0.825329 -21.437297 -7.125000 0.000000 0.000000 -28.562811 55.100967 -63.878030 -18.484257 26.408017 -3.308315 -1.135764 0.020052 -11.246985 7.125000 0.000000 0.000000 
-2.827388 17.112968 -2.398602 12.866820 40.422061 68.703658 1.982570 -20.166262 -57.972859 0.414108 8.961630 21.692796 0.619064 -13.354481 1.892928 0.323400 -3.655200 -10.108700 3.240818 12.689122 -91.330873 -5.510850 -11.091149 39.252631 -0.109799 2.088554 -0.845388 -1.097200 -6.656200 18.700800 14.544655 10.118250 25.024346 1.464004 5.860350 -8.861139 -0.496188 -13.347378 -15.491136 -1.541300 -7.849200 -0.883400 -88.641415 -13.846673 58.630467 71.787882 -62.014633 -43.910824 0.245141 0.825388 -21.503227 -7.125000 0.000000 0.000000 -28.454796 54.938714 -63.553871 -18.552416 26.507477 -3.335210 -1.138965 0.015313 -11.462878 7.125000 0.000000 0.000000 
-2.834622 17.111581 -2.391467 12.709899 40.369459 68.718434 1.968139 -19.940822 -58.105509 0.421314 8.976482 21.736459 0.615410 -13.467643 1.978263 0.300500 -3.524500 -9.742700 3.298248 12.848650 -91.438120 -5.507497 -11.083481 39.227569 -0.110343 2.107075 -0.791682 -1.099900 -6.664000 18.723800 14.542647 10.167499 24.994520 1.509440 5.884289 -8.899722 -0.482686 -13.294989 -15.608120 -1.517300 -7.823700 -0.933600 -88.585525 -13.782051 58.520281 71.838335 -62.022122 -43.948126 0.240695 0.821291 -21.608827 -7.125000 0.000000 0.000000 -28.609752 55.360607 -64.244954 -18.429791 26.335061 -3.284361 -1.134178 0.028329 -10.734567 7.125000 0.000000 0.000000 
-2.830360 17.109599 -2.394737 12.870408 40.404352 68.808413 2.027755 -20.164378 -58.115655 0.424774 8.993130 21.773933 0.614454 -13.311197 2.029430 0.249800 -3.215700 -8.879900 3.301974 12.683322 -91.451980 -5.509209 -11.087572 39.239973 -0.111173 2.121211 -0.774029 -1.091300 -6.638800 18.649700 14.346723 9.946275 24.850943 1.299767 5.744385 -9.082665 -0.366299 -13.153607 -15.535413 -1.467600 -7.744900 -0.899400 -88.462324 -13.605575 58.129471 71.734316 -62.009498 -43.843359 0.236176 0.819245 -21.633246 -7.125000 0.000000 0.000000 -28.990516 56.669899 -66.301925 -18.099520 25.873503 -3.142904 -1.116529 0.081997 -8.588280 7.125000 0.000000 0.000000 
-2.830856 17.109500 -2.393350 12.888326 40.360621 68.858558 2.076650 -20.225927 -58.183461 0.430609 9.013701 21.824706 0.614822 -13.179100 2.044892 0.218600 -3.010000 -8.306700 3.276460 12.686133 -91.493787 -5.508357 -11.086140 39.235687 -0.114063 2.159171 -0.757032 -1.090000 -6.634900 18.638200 14.321081 9.972286 24.851703 1.294300 5.754614 -9.088258 -0.387454 -13.195634 -15.546606 -1.474200 -7.766900 -0.909700 -88.488165 -13.650977 58.195780 71.574879 -61.985563 -43.720242 0.237581 0.818240 -21.675040 -7.125000 0.000000 0.000000 -28.891196 56.410865 -65.780980 -18.148662 25.941127 -3.164668 -1.119645 0.070943 -8.862814 7.125000 0.000000 0.000000 
-2.830955 17.110194 -2.386017 12.840592 40.284571 68.872993 2.186176 -20.280515 -58.192088 0.433061 9.023509 21.841076 0.622467 -13.029200 1.810554 0.251800 -3.228900 -8.916700 3.276444 12.753796 -91.523612 -5.506709 -11.082827 39.225442 -0.118815 2.212249 -0.764900 -1.059800 -6.545500 18.375700 14.443032 10.158991 24.960972 1.451097 5.868242 -8.957403 -0.495334 -13.360571 -15.705672 -1.509600 -7.860100 -0.986800 -88.622949 -13.827383 58.600631 71.521203 -61.975239 -43.701175 0.242588 0.817215 -21.689095 -7.125000 0.000000 0.000000 -28.365903 55.074633 -63.452393 -18.508438 26.456948 -3.320271 -1.136280 0.013037 -10.851152 7.125000 0.000000 0.000000 
